<?xml version="1.0" encoding="UTF-8"?>
<svg id="Camada_2" data-name="Camada 2" xmlns="http://www.w3.org/2000/svg" viewBox="0 0 16 15.98">
  <defs>
    <style>
      .cls-1 {
        stroke-width: 0px;
      }
    </style>
  </defs>
  <g id="Camada_2-2" data-name="Camada 2">
    <path class="cls-1" d="m7.61,12.83c-1.61-.07-2.96-.39-3.81-.84l-1.09.21.78-.4c-.51-.35-.7-.75-.53-1.15.06-.14.15-.26.27-.38H0s1.62.2,1.62.2c-.09.09-.17.18-.24.28-1.01,1.48,1.45,3.03,6.12,3.17l.11-1.1Z"/>
    <path class="cls-1" d="m13.8,12.1l-.95-.18c-.62.37-1.6.67-2.88.82-.5.06-1.01.09-1.52.1l.02,3.14.97-2.1c.39-.03.78-.07,1.16-.12,4.05-.58,5.17-2.11,4.09-3.25l1.31-.19h-2.68c.44.44.4.96-.2,1.42l.68.36Z"/>
    <polygon class="cls-1" points="12.53 2.17 11.84 7.32 11.02 1.39 9.8 .75 11.38 10.79 12.28 10.32 13.41 2.63 12.53 2.17"/>
    <polygon class="cls-1" points="7.02 .73 7.02 7.57 5.3 1.62 4.52 2.03 4.52 10.38 5.3 10.79 5.3 5.06 7.02 11.68 8.41 12.41 8.41 0 7.02 .73"/>
    <path class="cls-1" d="m4.52,9.18c-.96.22-1.79.52-2.39.89h1.32c.28-.19.64-.37,1.07-.51v-.38Z"/>
    <path class="cls-1" d="m13.93,9.94c-.42-.23-.93-.43-1.51-.6l-.05.37c.21.09.4.19.57.29.07.04.13.09.19.13h1.13c-.1-.06-.21-.13-.32-.19Z"/>
  </g>
</svg>