<?xml version="1.0" encoding="UTF-8"?>
<svg id="Camada_2" data-name="Camada 2" xmlns="http://www.w3.org/2000/svg" viewBox="0 0 343.46 395.51">
  <defs>
    <style>
      .cls-1 {
        font-family: Square721BT-Roman, 'Square721 BT';
        font-size: 34.74px;
      }

      .cls-1, .cls-2 {
        fill: #bfbfbf;
      }

      .cls-2, .cls-3 {
        stroke-width: 0px;
      }

      .cls-3 {
        fill: #415634;
      }
    </style>
  </defs>
  <g id="Camada_1-2" data-name="Camada 1">
    <g>
      <g>
        <path class="cls-2" d="m163.43,275.34c-34.46-1.51-63.6-8.28-81.87-18.01l-23.4,4.54,16.66-8.61c-10.95-7.6-14.95-16.12-11.46-24.63,1.19-2.91,3.21-5.67,5.89-8.25l-69.25-.29,34.72,4.67c-1.98,1.95-3.74,3.97-5.17,6.07-21.6,31.75,31.06,65.02,131.42,68.1l2.46-23.58Z"/>
        <path class="cls-2" d="m111.32,197.04l10.33,1.64c13.04-2.56,27.63-4.24,43.1-4.83,2.42-.09,4.83-.16,7.22-.19l.51-4.85c-3.53.03-7.1.09-10.71.21-45.45,1.52-90.84,11.35-116.03,27.19l28.34.16c9.53-6.86,24.04-12.38,40.64-16.21l-3.39-3.11Z"/>
      </g>
      <g>
        <path class="cls-3" d="m181.01,193.64c20.52.25,40.62,2.52,57.68,6.36l9.48-1.34-3.05,2.9c12.64,3.29,24.04,7.68,32.58,13.14,1.44.92,2.77,1.85,4,2.8l24.24.13c-2.14-1.47-4.45-2.91-6.96-4.31-25.77-14.39-68.53-22.8-109.29-24.27l-8.75-5.8.06,10.39Z"/>
        <path class="cls-3" d="m296.18,259.69l-20.31-3.86c-13.3,7.89-34.27,14.38-61.85,17.68-10.68,1.28-21.61,1.97-32.52,2.11l.4,67.38,20.76-44.99c8.41-.63,16.73-1.49,24.87-2.66,86.99-12.45,110.98-45.3,87.8-69.84l28.12-4-57.49-.24c9.52,9.76,8.53,20.75-4.31,30.65l14.52,7.77Z"/>
      </g>
      <polygon class="cls-3" points="268.9 46.57 254.22 157.1 236.65 29.77 210.47 16.13 244.34 231.52 263.55 221.52 287.92 56.48 268.9 46.57"/>
      <g>
        <polygon class="cls-3" points="151.25 98.48 151.25 164.25 113.83 34.78 134.47 40.9 151.25 98.48"/>
        <polygon class="cls-3" points="134.24 188.07 113.58 108.56 113.83 231.52 134.24 225.29 134.24 188.07"/>
        <polygon class="cls-3" points="210.47 15.63 180.61 0 180.61 266.3 210.47 251.58 210.47 15.63"/>
      </g>
      <g>
        <polygon class="cls-2" points="210.47 172.15 210.47 16.13 244.34 231.52 218.59 221.63 210.47 172.15"/>
        <polygon class="cls-2" points="269.09 46.57 239.82 51.32 245.68 95.4 254.42 158.94 269.09 46.57"/>
      </g>
      <polygon class="cls-2" points="150.68 15.59 150.68 162.54 113.83 34.78 96.98 43.55 96.98 222.74 113.83 231.52 113.83 108.56 150.68 250.71 180.61 266.3 180.61 0 150.68 15.59"/>
    </g>
    <text class="cls-1" transform="translate(37.11 387.32)"><tspan x="0" y="0">NV TOPOGRAFIA</tspan></text>
  </g>
</svg>