<?xml version="1.0" encoding="UTF-8"?>
<svg id="Camada_2" data-name="Camada 2" xmlns="http://www.w3.org/2000/svg" viewBox="0 0 110 125.35">
  <defs>
    <style>
      .cls-1 {
        fill: #00a884;
      }

      .cls-1, .cls-2, .cls-3 {
        stroke-width: 0px;
      }

      .cls-2 {
        fill: red;
      }

      .cls-3 {
        fill: #fff;
      }
    </style>
  </defs>
  <g id="Camada_1-2" data-name="Camada 1">
    <circle class="cls-1" cx="55" cy="70.35" r="55"/>
    <path class="cls-3" d="m74.6,49.72c-5.34-5.35-12.45-8.29-20-8.29-15.59,0-28.28,12.69-28.28,28.28,0,4.98,1.3,9.85,3.77,14.14l-4.01,14.65,14.99-3.94c4.13,2.25,8.78,3.44,13.52,3.44h.01c15.58,0,28.55-12.69,28.55-28.28,0-7.55-3.21-14.65-8.55-20Zm-20,43.52c-4.23,0-8.37-1.13-11.98-3.27l-.85-.51-8.89,2.33,2.37-8.68-.56-.89c-2.36-3.75-3.59-8.06-3.59-12.51,0-12.96,10.55-23.51,23.52-23.51,6.28,0,12.18,2.45,16.61,6.89,4.43,4.45,7.16,10.34,7.15,16.63,0,12.97-10.82,23.52-23.77,23.52Zm12.89-17.61c-.7-.36-4.18-2.06-4.83-2.29-.65-.24-1.12-.36-1.59.36-.47.71-1.82,2.29-2.24,2.78-.41.47-.83.53-1.53.18-4.15-2.08-6.88-3.71-9.62-8.41-.73-1.25.73-1.16,2.08-3.86.23-.47.11-.88-.06-1.24-.18-.36-1.59-3.83-2.18-5.25-.57-1.38-1.16-1.18-1.59-1.21-.41-.03-.88-.03-1.35-.03s-1.24.18-1.89.88c-.65.71-2.47,2.42-2.47,5.9s2.54,6.84,2.88,7.31c.36.47,4.98,7.61,12.08,10.68,4.48,1.94,6.24,2.1,8.48,1.77,1.36-.2,4.18-1.71,4.76-3.36.59-1.66.59-3.07.41-3.36-.17-.32-.64-.5-1.34-.84Z"/>
    <circle class="cls-2" cx="85.95" cy="19" r="19"/>
    <path class="cls-3" d="m90.79,30.04h-5.41V12.75h-6.66v-3.48c5.03-.04,6.47-.87,7.38-4.2h4.69v24.98Z"/>
  </g>
</svg>