<?xml version="1.0" encoding="UTF-8"?>
<svg id="Camada_2" data-name="Camada 2" xmlns="http://www.w3.org/2000/svg" xmlns:xlink="http://www.w3.org/1999/xlink" viewBox="0 0 288 839">
  <defs>
    <style>
      .cls-1 {
        filter: url(#drop-shadow-12);
      }

      .cls-1, .cls-2, .cls-3, .cls-4, .cls-5, .cls-6, .cls-7, .cls-8, .cls-9, .cls-10, .cls-11, .cls-12, .cls-13, .cls-14, .cls-15, .cls-16, .cls-17, .cls-18, .cls-19, .cls-20 {
        stroke-width: 0px;
      }

      .cls-1, .cls-2, .cls-3, .cls-4, .cls-5, .cls-6, .cls-8, .cls-9, .cls-10, .cls-13, .cls-14, .cls-15, .cls-16, .cls-17, .cls-18, .cls-20 {
        fill: #fff;
      }

      .cls-2 {
        filter: url(#drop-shadow-14);
      }

      .cls-3 {
        filter: url(#drop-shadow-10);
      }

      .cls-4 {
        filter: url(#drop-shadow-2);
      }

      .cls-5 {
        filter: url(#drop-shadow-1);
      }

      .cls-6 {
        filter: url(#drop-shadow-19);
      }

      .cls-7 {
        fill: none;
      }

      .cls-8 {
        filter: url(#drop-shadow-17);
      }

      .cls-9 {
        filter: url(#drop-shadow-13);
      }

      .cls-10 {
        filter: url(#drop-shadow-4);
      }

      .cls-11 {
        fill: #eee;
        filter: url(#drop-shadow-6);
      }

      .cls-12 {
        fill: #f7f7f7;
        filter: url(#drop-shadow-7);
      }

      .cls-13 {
        filter: url(#drop-shadow-18);
      }

      .cls-14 {
        filter: url(#drop-shadow-16);
      }

      .cls-15 {
        filter: url(#drop-shadow-8);
      }

      .cls-16 {
        filter: url(#drop-shadow-3);
      }

      .cls-17 {
        filter: url(#drop-shadow-15);
      }

      .cls-18 {
        filter: url(#drop-shadow-11);
      }

      .cls-19 {
        fill: #dedede;
        filter: url(#drop-shadow-5);
      }

      .cls-20 {
        filter: url(#drop-shadow-9);
      }
    </style>
    <filter id="drop-shadow-1" filterUnits="userSpaceOnUse">
      <feOffset dx="-7" dy="5"/>
      <feGaussianBlur result="blur" stdDeviation="5"/>
      <feFlood flood-color="#000" flood-opacity=".2"/>
      <feComposite in2="blur" operator="in"/>
      <feComposite in="SourceGraphic"/>
    </filter>
    <filter id="drop-shadow-2" filterUnits="userSpaceOnUse">
      <feOffset dx="-7" dy="5"/>
      <feGaussianBlur result="blur-2" stdDeviation="5"/>
      <feFlood flood-color="#000" flood-opacity=".2"/>
      <feComposite in2="blur-2" operator="in"/>
      <feComposite in="SourceGraphic"/>
    </filter>
    <filter id="drop-shadow-3" filterUnits="userSpaceOnUse">
      <feOffset dx="-7" dy="5"/>
      <feGaussianBlur result="blur-3" stdDeviation="5"/>
      <feFlood flood-color="#000" flood-opacity=".2"/>
      <feComposite in2="blur-3" operator="in"/>
      <feComposite in="SourceGraphic"/>
    </filter>
    <filter id="drop-shadow-4" filterUnits="userSpaceOnUse">
      <feOffset dx="-7" dy="5"/>
      <feGaussianBlur result="blur-4" stdDeviation="5"/>
      <feFlood flood-color="#000" flood-opacity=".2"/>
      <feComposite in2="blur-4" operator="in"/>
      <feComposite in="SourceGraphic"/>
    </filter>
    <filter id="drop-shadow-5" filterUnits="userSpaceOnUse">
      <feOffset dx="-7" dy="5"/>
      <feGaussianBlur result="blur-5" stdDeviation="5"/>
      <feFlood flood-color="#000" flood-opacity=".2"/>
      <feComposite in2="blur-5" operator="in"/>
      <feComposite in="SourceGraphic"/>
    </filter>
    <filter id="drop-shadow-6" filterUnits="userSpaceOnUse">
      <feOffset dx="-7" dy="5"/>
      <feGaussianBlur result="blur-6" stdDeviation="5"/>
      <feFlood flood-color="#000" flood-opacity=".2"/>
      <feComposite in2="blur-6" operator="in"/>
      <feComposite in="SourceGraphic"/>
    </filter>
    <filter id="drop-shadow-7" filterUnits="userSpaceOnUse">
      <feOffset dx="-7" dy="5"/>
      <feGaussianBlur result="blur-7" stdDeviation="5"/>
      <feFlood flood-color="#000" flood-opacity=".2"/>
      <feComposite in2="blur-7" operator="in"/>
      <feComposite in="SourceGraphic"/>
    </filter>
    <filter id="drop-shadow-8" filterUnits="userSpaceOnUse">
      <feOffset dx="-7" dy="5"/>
      <feGaussianBlur result="blur-8" stdDeviation="5"/>
      <feFlood flood-color="#000" flood-opacity=".2"/>
      <feComposite in2="blur-8" operator="in"/>
      <feComposite in="SourceGraphic"/>
    </filter>
    <filter id="drop-shadow-9" filterUnits="userSpaceOnUse">
      <feOffset dx="-7" dy="5"/>
      <feGaussianBlur result="blur-9" stdDeviation="5"/>
      <feFlood flood-color="#000" flood-opacity=".2"/>
      <feComposite in2="blur-9" operator="in"/>
      <feComposite in="SourceGraphic"/>
    </filter>
    <filter id="drop-shadow-10" filterUnits="userSpaceOnUse">
      <feOffset dx="-7" dy="5"/>
      <feGaussianBlur result="blur-10" stdDeviation="5"/>
      <feFlood flood-color="#000" flood-opacity=".2"/>
      <feComposite in2="blur-10" operator="in"/>
      <feComposite in="SourceGraphic"/>
    </filter>
    <filter id="drop-shadow-11" filterUnits="userSpaceOnUse">
      <feOffset dx="-7" dy="5"/>
      <feGaussianBlur result="blur-11" stdDeviation="5"/>
      <feFlood flood-color="#000" flood-opacity=".2"/>
      <feComposite in2="blur-11" operator="in"/>
      <feComposite in="SourceGraphic"/>
    </filter>
    <filter id="drop-shadow-12" filterUnits="userSpaceOnUse">
      <feOffset dx="-7" dy="5"/>
      <feGaussianBlur result="blur-12" stdDeviation="5"/>
      <feFlood flood-color="#000" flood-opacity=".2"/>
      <feComposite in2="blur-12" operator="in"/>
      <feComposite in="SourceGraphic"/>
    </filter>
    <filter id="drop-shadow-13" filterUnits="userSpaceOnUse">
      <feOffset dx="-7" dy="5"/>
      <feGaussianBlur result="blur-13" stdDeviation="5"/>
      <feFlood flood-color="#000" flood-opacity=".2"/>
      <feComposite in2="blur-13" operator="in"/>
      <feComposite in="SourceGraphic"/>
    </filter>
    <filter id="drop-shadow-14" filterUnits="userSpaceOnUse">
      <feOffset dx="-7" dy="5"/>
      <feGaussianBlur result="blur-14" stdDeviation="5"/>
      <feFlood flood-color="#000" flood-opacity=".2"/>
      <feComposite in2="blur-14" operator="in"/>
      <feComposite in="SourceGraphic"/>
    </filter>
    <filter id="drop-shadow-15" filterUnits="userSpaceOnUse">
      <feOffset dx="-7" dy="5"/>
      <feGaussianBlur result="blur-15" stdDeviation="5"/>
      <feFlood flood-color="#000" flood-opacity=".2"/>
      <feComposite in2="blur-15" operator="in"/>
      <feComposite in="SourceGraphic"/>
    </filter>
    <filter id="drop-shadow-16" filterUnits="userSpaceOnUse">
      <feOffset dx="-7" dy="5"/>
      <feGaussianBlur result="blur-16" stdDeviation="5"/>
      <feFlood flood-color="#000" flood-opacity=".2"/>
      <feComposite in2="blur-16" operator="in"/>
      <feComposite in="SourceGraphic"/>
    </filter>
    <filter id="drop-shadow-17" filterUnits="userSpaceOnUse">
      <feOffset dx="-7" dy="5"/>
      <feGaussianBlur result="blur-17" stdDeviation="5"/>
      <feFlood flood-color="#000" flood-opacity=".2"/>
      <feComposite in2="blur-17" operator="in"/>
      <feComposite in="SourceGraphic"/>
    </filter>
    <filter id="drop-shadow-18" filterUnits="userSpaceOnUse">
      <feOffset dx="-7" dy="5"/>
      <feGaussianBlur result="blur-18" stdDeviation="5"/>
      <feFlood flood-color="#000" flood-opacity=".2"/>
      <feComposite in2="blur-18" operator="in"/>
      <feComposite in="SourceGraphic"/>
    </filter>
    <filter id="drop-shadow-19" filterUnits="userSpaceOnUse">
      <feOffset dx="-7" dy="5"/>
      <feGaussianBlur result="blur-19" stdDeviation="5"/>
      <feFlood flood-color="#000" flood-opacity=".2"/>
      <feComposite in2="blur-19" operator="in"/>
      <feComposite in="SourceGraphic"/>
    </filter>
  </defs>
  <g id="Camada_2-2" data-name="Camada 2">
    <path class="cls-5" d="m22.25,671.05c25.65-27.7,30.02-61.82,13.84-102.28-4.11-10.27-9.48-20.12-13.84-30.37v132.65Z"/>
    <path class="cls-4" d="m22.25,558.85c2.79,6.25,5.59,12.49,8.08,18.86,9.39,24.07,11.98,48.82-3.01,69.81-1.66,2.33-3.35,4.62-5.07,6.86v56.82c7.08-8.92,13.9-18.07,20.44-27.4,23.41-33.39,34-71.84,22.98-113.93-11.06-42.27-2.06-81.17,12.24-119.85,3.21-8.69,5.44-17.82,8.72-26.47,4.85-12.79.79-22.68-7.74-30.9-15.06-14.54-36.67-19.95-56.65-16.41v182.61Z"/>
    <path class="cls-16" d="m42.1,307.13c-6.65-3.77-13.27-7.63-19.85-11.55v89.94c17.01-2.66,41.62,3.89,50.87,15.44,12.35,15.42.69,29.82-2.66,44.49-.11.49-.17.78-.21.95,0-.09-.1.02-.49,1.07-15.29,40.86-23.16,82.39-12,126.56,8.43,33.35,1.19,64.4-15.07,92.98-6.06,10.65-13.01,20.43-20.44,29.74v51.37c10.08-14.9,20.29-29.68,31.23-43.76,35.72-45.97,42.99-98.08,33.59-155.97-4.16-25.61,2.13-50.55,16.02-71.77,23.63-36.1,52.89-65.32,88.86-85.94,18.08-10.36,30.34-27.14,29.2-49.82-1.14-22.73-14.41-38.4-34.27-45.3-21.87-7.6-40.79,2.78-59.35,13.79-28.89,17.14-57.32,13.73-85.44-2.22Z"/>
    <path class="cls-10" d="m22.25,305.98c5.61,3.28,11.24,6.52,16.88,9.72,30.14,17.08,60.98,18.85,91.87,2.25,10.57-5.68,20.95-11.87,32.58-14.3,18.99-3.97,38.43,7.07,45.35,25.27,6.87,18.06.59,37.08-16.74,50.35-2.67,2.05-5.53,3.8-8.4,5.53-28.42,17.08-52.36,40.31-73.79,66.86-25.34,31.39-35.69,66.99-29.79,109.87,5.69,41.33,3.56,82.4-21.22,117.87-12.39,17.73-24.55,35.67-36.75,53.56v50.04c8.09-14.04,16.57-27.76,25.75-40.84,39.09-55.69,70.96-112.87,61.42-187.57-5.29-41.43,15.33-67.81,42.05-91.44,26.73-23.64,59.11-36.48,86.89-58.08,13.93-10.82,21.79-25.27,23.16-43.16,3.48-45.38-13.22-83.47-38.8-116.81-8.51-11.09-21.97-14.76-36.01-11.52-22.27,5.14-44.84,8.84-66.95,14.71-31.62,8.39-60.24,6.05-84.62-21.21-3.61-4.04-8.2-7-12.89-9.85v88.75Z"/>
    <path class="cls-19" d="m209.26,53.54c23.92,2.94,46.86,10.85,70.09,17.96V13.93c-2.72-1.16-5.45-2.27-8.19-3.36H22.25v45.56c9.5-.42,18.96-1.9,28.27-4.53,53.43-15.05,106.05-4.54,158.74,1.94Z"/>
    <path class="cls-11" d="m221.25,92.21c20.42,5.2,39.65,13.8,58.1,24.02v-53.85c-47.71-12.96-95.53-23.47-144.9-27.2-21.86-1.65-42.59-1.24-63.67,3.71-16.22,3.81-32.42,6.52-48.53,7.06v64.53c36.31,3.58,73.13-.64,110.54-13.14,29.02-9.7,58.43-12.77,88.46-5.13Z"/>
    <path class="cls-12" d="m279.35,169.55v-64.37c-51.06-27.09-104.48-34.93-163.32-13.59-30.86,11.19-62.39,14.86-93.78,11.27v47.17c10.67,2.14,21.33,4.27,31.98,6.52,34.78,7.35,66.06,10.67,96.71-18.9,43.19-41.67,104.54-15.38,128.41,31.9Z"/>
    <path class="cls-15" d="m168.95,592.08c1.46-31.03,17.21-54.18,43.39-66.85,11.91-5.77,24.1-11.75,36.72-14.63,10.83-2.47,20.84-6.42,30.3-11.39v-52.32c-9.56,7.74-20.04,14.2-31.47,19.36-18.09,8.16-36.57,15.19-53.82,25.63-33.42,20.22-53.14,49.24-54.09,93.27-.97,44.92-10.97,86.32-38.5,122.11-20.15,26.19-38.72,54.4-52.3,85.92-3.61,8.38-6.68,16.72-9.08,25h30.92c8.53-31.18,22.54-59.9,42.6-82.58,35.89-40.57,52.69-87.63,55.33-143.52Z"/>
    <path class="cls-20" d="m149.3,573.28c-.47-18.44,7.5-35.69,20.45-50.01,18.73-20.71,41.77-31.99,65.77-41.09,16.01-6.07,30.63-13.94,43.83-23.86v-39.29c-6.65,7.59-14.49,14.4-23.58,20.26-21.89,14.12-45.79,24.34-68.58,36.78-39.27,21.44-61.01,54.77-58.47,105.34.82,16.45.66,32.98-2.25,49.66-7.31,41.84-32.79,71.63-53.63,104.55-16.7,26.38-33.74,52.6-44.43,82.56h19.81c7.64-28.54,22.49-53.69,39.99-76.66,37.48-49.2,62.8-101.73,61.1-168.25Z"/>
    <path class="cls-3" d="m279.35,486.87c-17.38,10.05-35.86,18.16-55.85,23.77-39.06,10.96-61.35,42.36-63.62,88.37-2.46,49.84-19.31,91.89-50.76,127.88-17.7,20.26-30.31,45.17-40.55,71.18-2.62,6.65-4.87,13.37-6.66,20.12h217.43v-331.32Z"/>
    <path class="cls-18" d="m279.35,10.57h-42.75c14.24,4.48,28.51,8.87,42.75,13.31v-13.31Z"/>
    <path class="cls-1" d="m137.5,583.89c-3.89-47.69,17.5-79.45,55.07-100.27,19.26-10.67,39.67-18.59,58.41-30.34,10.55-6.62,20.08-14.05,28.37-22.45V152.04c-7.22-11.31-16.83-20.3-28.26-27.72-42.59-27.67-81.35-18.32-117.37,14.4-13.77,12.51-29,17.69-45.48,14.03-21.85-4.85-43.95-8.3-66-12.08v87.94c4.67,3.43,9.19,7.13,13.58,11.08,20.94,18.84,43.93,26.01,71.07,20.11,26.14-5.68,52.48-10.51,78.72-15.8,13.56-2.74,24.68.57,33.45,11.9,19.19,24.78,30.88,53.54,34.14,86.05,2.52,25.12-5.51,45.07-25.14,59.28-20.25,14.65-42.49,25.22-62.84,39.66-42.11,29.88-72.27,66.75-64.12,127.63.47,3.54-.13,7.25.09,10.85,2.9,46.42-10.78,86.74-36.79,122.34-15.17,20.77-29.04,42.5-42.15,64.79v51.7h15.5c11.85-28.41,25.33-55.78,43-80.25,32.62-45.19,61.86-91.32,56.75-154.05Z"/>
    <path class="cls-9" d="m279.35,536.15c-12.45,3.84-25.14,7.05-38.11,9.63-27.7,5.51-44.54,25.45-50.49,56.12-3.56,18.33-6.3,36.87-10.07,55.14-7.85,38.14-29.77,67.01-52.33,95.18-16.09,20.1-27.83,42.81-32.68,65.96h183.67v-282.04Z"/>
    <path class="cls-2" d="m279.35,561.32c-42.49,9.04-71.61,33.8-79.01,89.69-5.84,44.05-27.09,80.52-54.53,112.99-13.74,16.26-22.71,34.66-25.57,54.2h159.12v-256.87Z"/>
    <path class="cls-17" d="m279.35,589.88c-25.04,7.18-46.2,22.88-54.67,55.96-13.8,53.93-33.73,104.65-63.41,150.48-4.1,6.33-6.53,14.05-7.4,21.88h125.48v-228.31Z"/>
    <path class="cls-14" d="m279.35,615.04c-21.62,10.74-36.83,30.27-44.94,58.39-11.91,41.27-27.73,81.33-37.28,123.21-1.62,7.11-2.95,14.32-3.99,21.56h86.21v-203.15Z"/>
    <path class="cls-8" d="m279.35,643.64c-16.02,12.83-26.87,31.56-33.99,54.68-12.45,40.4-14.69,82.35-17.6,119.87h51.59v-174.55Z"/>
    <path class="cls-13" d="m279.35,671.09c-14.6,16.76-22.86,39.15-25.68,66.59-2.75,26.77-1.9,53.67-3.29,80.51h28.97v-147.1Z"/>
    <path class="cls-6" d="m279.35,705.98c-3.17,7.79-4.97,16.46-5.26,25.69-.9,28.85-.14,57.76-.84,86.52h6.1v-112.21Z"/>
    <rect class="cls-7" x="-248.69" y="288.87" width="800" height="250" transform="translate(565.18 262.55) rotate(90)"/>
  </g>
</svg>